<?xml version="1.0" encoding="UTF-8" standalone="no"?>
<svg
   id="svg"
   version="1.1"
   width="335.37692"
   height="335.47345"
   viewBox="0 0 335.37692 335.47345"
   sodipodi:docname="alteryx.svg"
   inkscape:version="1.1.2 (b8e25be8, 2022-02-05)"
   xmlns:inkscape="http://www.inkscape.org/namespaces/inkscape"
   xmlns:sodipodi="http://sodipodi.sourceforge.net/DTD/sodipodi-0.dtd"
   xmlns="http://www.w3.org/2000/svg"
   xmlns:svg="http://www.w3.org/2000/svg">
  <defs
     id="defs18" />
  <sodipodi:namedview
     id="namedview16"
     pagecolor="#ffffff"
     bordercolor="#9ca3af"
     borderopacity="1.0"
     inkscape:pageshadow="2"
     inkscape:pageopacity="0.0"
     inkscape:pagecheckerboard="0"
     showgrid="false"
     fit-margin-top="0"
     fit-margin-left="0"
     fit-margin-right="0"
     fit-margin-bottom="0"
     inkscape:zoom="0.63628338"
     inkscape:cx="139.08897"
     inkscape:cy="407.83715"
     inkscape:window-width="1312"
     inkscape:window-height="847"
     inkscape:window-x="0"
     inkscape:window-y="25"
     inkscape:window-maximized="0"
     inkscape:current-layer="svgg" />
  <g
     id="svgg"
     transform="translate(-32.202692,-5.353113)">
    <path
       id="path0"
       d="m 183.877,74.778 c -13.347,0.728 -26.052,2.825 -37.162,6.133 l -0.981,0.293 0.08,1.384 c 0.47,8.103 2.494,21.455 3.793,25.026 0.055,0.152 0.761,-0.042 2.162,-0.595 7.041,-2.777 16.63,-4.801 27.981,-5.908 15.104,-1.473 37.202,1.91 44.738,6.847 l 0.464,0.304 v 21.667 21.667 l -1.775,0.115 c -0.977,0.064 -8.772,0.374 -17.323,0.69 -20.405,0.753 -23.675,0.97 -30.614,2.032 -28.105,4.301 -42.521,17.732 -44.993,41.92 -3.36,32.874 12.323,52.478 43.775,54.718 18.602,1.324 35.035,-3.763 50.687,-15.692 3.079,-2.346 3.145,-2.348 4.249,-0.11 5.642,11.443 18.012,17.34 33.134,15.798 13.552,-1.382 18.138,-7.227 18.138,-23.117 v -5.685 l -9.645,-0.002 c -13.104,-0.002 -14.532,-0.316 -16.315,-3.591 -1.307,-2.402 -1.189,3.559 -1.295,-65.312 l -0.096,-62.092 -1.282,-0.96 C 237.823,79.993 209.089,73.403 183.877,74.778 m 41.069,119.224 -0.006,20.489 -0.431,0.313 c -12.882,9.342 -36.474,14.444 -50.016,10.816 -9.603,-2.573 -13.985,-9.133 -14.356,-21.493 -0.582,-19.36 6.03,-26.955 24.988,-28.701 2.397,-0.221 35.282,-1.842 38.339,-1.89 l 1.488,-0.024 -0.006,20.49"
       stroke="none"
       fill="#fbfbfb"
       fill-rule="evenodd" />
    <path
       id="path1"
       d="M 192.035,5.57 C 91.196,10.752 17.919,101.713 34.566,201.043 50.693,297.27 145.903,359.476 240.787,335.778 324.595,314.847 378.454,233.764 365.72,147.697 353.258,63.474 277.152,1.196 192.035,5.57 m 7.998,69.293 c 21.834,1.473 41.685,7.468 52.219,15.771 l 0.717,0.565 0.051,61.838 0.051,61.838 0.432,1.519 c 0.909,3.195 2.321,4.613 5.422,5.446 0.847,0.228 3.081,0.302 11.277,0.373 l 10.22,0.088 v 4.829 c 0,18.059 -5.665,24.141 -22.473,24.132 -14.113,-0.009 -24.074,-5.457 -29.065,-15.897 -1.018,-2.13 -1.229,-2.134 -3.89,-0.063 -13.075,10.179 -26.843,15.382 -42.112,15.916 -34.26,1.199 -52.968,-15.213 -53.024,-46.516 -0.059,-32.948 16.779,-48.54 55.651,-51.531 2.378,-0.183 36.213,-1.54 38.398,-1.54 h 1.045 v -21.658 -21.658 l -2.255,-1.075 c -18.027,-8.591 -51.854,-8.353 -72.442,0.511 l -0.705,0.303 -0.58,-2.443 c -1.541,-6.49 -2.822,-15.364 -3.208,-22.228 l -0.131,-2.318 3.432,-0.918 c 16.962,-4.54 34.718,-6.381 50.97,-5.284 m 8.892,99.421 c -20.945,0.997 -22.914,1.108 -25.634,1.443 -16.265,2.002 -22.262,8.202 -23.011,23.793 -0.932,19.413 6.134,27.077 24.941,27.053 13.472,-0.016 27.304,-4.065 38.148,-11.165 l 1.583,-1.037 v -20.429 -20.43 l -0.432,0.025 c -0.237,0.014 -7.255,0.35 -15.595,0.747"
       stroke="none"
       fill="#9ca3af"
       fill-rule="evenodd" />
    <path
       id="path3"
       d="m 184.023,74.8 c 0.239,0.046 0.585,0.044 0.768,-0.004 0.184,-0.048 -0.012,-0.086 -0.434,-0.083 -0.422,0.002 -0.572,0.041 -0.334,0.087 m 12.092,0 c 0.239,0.046 0.585,0.044 0.768,-0.004 0.184,-0.048 -0.012,-0.086 -0.434,-0.083 -0.422,0.002 -0.572,0.041 -0.334,0.087 m -50.389,7.542 c 0,0.369 0.039,0.52 0.088,0.336 0.048,-0.185 0.048,-0.488 0,-0.672 -0.049,-0.185 -0.088,-0.034 -0.088,0.336 m 38.199,18.558 c 0.185,0.048 0.487,0.048 0.672,0 0.185,-0.048 0.034,-0.088 -0.336,-0.088 -0.369,0 -0.521,0.04 -0.336,0.088 m 38.294,50.867 c 0.239,0.046 0.584,0.044 0.768,-0.004 0.183,-0.048 -0.012,-0.085 -0.434,-0.083 -0.422,0.002 -0.573,0.041 -0.334,0.087 m -4.99,0.192 c 0.238,0.046 0.584,0.044 0.767,-0.004 0.184,-0.048 -0.011,-0.085 -0.434,-0.083 -0.422,0.002 -0.572,0.041 -0.333,0.087 m -4.991,0.192 c 0.239,0.046 0.585,0.044 0.768,-0.004 0.184,-0.048 -0.012,-0.085 -0.434,-0.083 -0.422,0.002 -0.572,0.041 -0.334,0.087 m -4.99,0.192 c 0.239,0.046 0.584,0.044 0.768,-0.004 0.183,-0.048 -0.012,-0.085 -0.434,-0.083 -0.423,0.002 -0.573,0.041 -0.334,0.087 m -4.99,0.192 c 0.238,0.046 0.584,0.044 0.767,-0.004 0.184,-0.048 -0.012,-0.085 -0.434,-0.083 -0.422,0.002 -0.572,0.041 -0.333,0.087 m -4.991,0.192 c 0.239,0.046 0.584,0.044 0.768,-0.004 0.183,-0.048 -0.012,-0.086 -0.434,-0.083 -0.422,0.002 -0.573,0.041 -0.334,0.087 m -4.99,0.192 c 0.238,0.046 0.584,0.044 0.767,-0.004 0.184,-0.048 -0.011,-0.086 -0.434,-0.083 -0.422,0.002 -0.572,0.041 -0.333,0.087 m -50.152,15.843 -1.338,1.392 1.392,-1.339 c 1.292,-1.243 1.479,-1.445 1.338,-1.445 -0.029,0 -0.655,0.627 -1.392,1.392 m 79.996,4.883 c 0.185,0.048 0.487,0.048 0.672,0 0.184,-0.048 0.033,-0.088 -0.336,-0.088 -0.37,0 -0.521,0.04 -0.336,0.088 m -4.223,0.192 c 0.185,0.048 0.487,0.048 0.672,0 0.185,-0.049 0.034,-0.088 -0.336,-0.088 -0.369,0 -0.52,0.039 -0.336,0.088 m -4.03,0.192 c 0.184,0.048 0.487,0.048 0.671,0 0.185,-0.049 0.034,-0.088 -0.336,-0.088 -0.369,0 -0.52,0.039 -0.335,0.088 m -4.223,0.192 c 0.185,0.048 0.487,0.048 0.672,0 0.184,-0.049 0.033,-0.088 -0.336,-0.088 -0.37,0 -0.521,0.039 -0.336,0.088 m -4.031,0.192 c 0.185,0.048 0.487,0.048 0.672,0 0.185,-0.049 0.034,-0.088 -0.336,-0.088 -0.369,0 -0.521,0.039 -0.336,0.088 m -8.253,0.383 c 0.185,0.049 0.487,0.049 0.672,0 0.184,-0.048 0.033,-0.087 -0.336,-0.087 -0.37,0 -0.521,0.039 -0.336,0.087 m -4.031,0.192 c 0.185,0.049 0.487,0.049 0.672,0 0.185,-0.048 0.034,-0.087 -0.336,-0.087 -0.369,0 -0.521,0.039 -0.336,0.087 m -4.223,0.192 c 0.185,0.049 0.488,0.049 0.672,0 0.185,-0.048 0.034,-0.087 -0.336,-0.087 -0.369,0 -0.52,0.039 -0.336,0.087 m -23.188,7.21 -0.564,0.623 0.624,-0.563 c 0.343,-0.31 0.624,-0.591 0.624,-0.624 0,-0.148 -0.159,-0.018 -0.684,0.564 m -5.798,17.034 c 0,0.37 0.04,0.521 0.088,0.336 0.048,-0.185 0.048,-0.487 0,-0.672 -0.048,-0.184 -0.088,-0.033 -0.088,0.336 m -30.322,1.824 c 0.002,0.422 0.041,0.572 0.087,0.333 0.046,-0.238 0.044,-0.584 -0.004,-0.767 -0.048,-0.184 -0.085,0.011 -0.083,0.434 m -0.004,6.621 c 0,0.37 0.04,0.521 0.088,0.336 0.048,-0.184 0.048,-0.487 0,-0.671 -0.048,-0.185 -0.088,-0.034 -0.088,0.335 m 35.464,12.537 c 0,0.033 0.281,0.313 0.624,0.623 l 0.624,0.564 -0.564,-0.624 c -0.526,-0.581 -0.684,-0.712 -0.684,-0.563 m 17.709,6.411 c 0.292,0.044 0.724,0.043 0.96,-0.002 0.236,-0.046 -0.003,-0.082 -0.531,-0.081 -0.528,0.002 -0.721,0.039 -0.429,0.083 m 3.455,0 c 0.292,0.044 0.724,0.043 0.96,-0.002 0.236,-0.046 -0.003,-0.082 -0.531,-0.081 -0.528,0.002 -0.721,0.039 -0.429,0.083 m 40.787,6.908 c 0.238,0.046 0.584,0.044 0.767,-0.004 0.184,-0.048 -0.012,-0.085 -0.434,-0.083 -0.422,0.002 -0.572,0.041 -0.333,0.087 m -85.463,4.663 c 0.52,0.528 0.988,0.959 1.041,0.959 0.053,0 -0.33,-0.431 -0.849,-0.959 -0.52,-0.528 -0.989,-0.96 -1.042,-0.96 -0.052,0 0.33,0.432 0.85,0.96 m 92.418,4.51 c 0.358,0.37 0.694,0.672 0.747,0.672 0.053,0 -0.197,-0.302 -0.555,-0.672 -0.358,-0.369 -0.694,-0.672 -0.747,-0.672 -0.053,0 0.197,0.303 0.555,0.672"
       stroke="none"
       fill="#9ca3af"
       fill-rule="evenodd" />
    <path
       id="path4"
       d="m 182.774,74.796 c 0.184,0.049 0.487,0.049 0.671,0 0.185,-0.048 0.034,-0.087 -0.336,-0.087 -0.369,0 -0.52,0.039 -0.335,0.087 m 14.587,0 c 0.185,0.049 0.487,0.049 0.672,0 0.184,-0.048 0.033,-0.087 -0.336,-0.087 -0.37,0 -0.521,0.039 -0.336,0.087 m -12.186,26.108 c 0.239,0.045 0.584,0.044 0.768,-0.004 0.183,-0.048 -0.012,-0.086 -0.434,-0.084 -0.423,0.002 -0.573,0.042 -0.334,0.088 m 7.579,-0.004 c 0.185,0.048 0.487,0.048 0.672,0 0.185,-0.048 0.034,-0.088 -0.336,-0.088 -0.369,0 -0.52,0.04 -0.336,0.088 m 28.122,50.867 c 0.238,0.046 0.584,0.044 0.767,-0.004 0.184,-0.048 -0.012,-0.085 -0.434,-0.083 -0.422,0.002 -0.572,0.041 -0.333,0.087 m -4.991,0.192 c 0.239,0.046 0.584,0.044 0.768,-0.004 0.183,-0.048 -0.012,-0.085 -0.434,-0.083 -0.422,0.002 -0.573,0.041 -0.334,0.087 m -4.99,0.192 c 0.239,0.046 0.584,0.044 0.768,-0.004 0.183,-0.048 -0.012,-0.085 -0.435,-0.083 -0.422,0.002 -0.572,0.041 -0.333,0.087 m -4.991,0.192 c 0.239,0.046 0.585,0.044 0.768,-0.004 0.184,-0.048 -0.012,-0.085 -0.434,-0.083 -0.422,0.002 -0.572,0.041 -0.334,0.087 m -4.99,0.192 c 0.239,0.046 0.584,0.044 0.768,-0.004 0.183,-0.048 -0.012,-0.085 -0.434,-0.083 -0.423,0.002 -0.573,0.041 -0.334,0.087 m -4.99,0.192 c 0.238,0.046 0.584,0.044 0.767,-0.004 0.184,-0.048 -0.012,-0.086 -0.434,-0.083 -0.422,0.002 -0.572,0.041 -0.333,0.087 m -4.991,0.192 c 0.239,0.046 0.584,0.044 0.768,-0.004 0.183,-0.048 -0.012,-0.086 -0.434,-0.083 -0.422,0.002 -0.573,0.041 -0.334,0.087 m 28.117,20.918 c 0.185,0.048 0.487,0.048 0.672,0 0.184,-0.049 0.033,-0.088 -0.336,-0.088 -0.37,0 -0.521,0.039 -0.336,0.088 m -8.253,0.384 c 0.184,0.048 0.487,0.048 0.671,0 0.185,-0.049 0.034,-0.088 -0.336,-0.088 -0.369,0 -0.52,0.039 -0.335,0.088 m -8.254,0.383 c 0.185,0.049 0.487,0.049 0.672,0 0.185,-0.048 0.034,-0.087 -0.336,-0.087 -0.369,0 -0.521,0.039 -0.336,0.087 m -42.409,26.356 c 0,0.58 0.036,0.818 0.08,0.528 0.044,-0.291 0.044,-0.766 0,-1.056 -0.044,-0.29 -0.08,-0.053 -0.08,0.528 m -0.002,3.359 c 0.001,0.527 0.038,0.721 0.083,0.429 0.044,-0.292 0.042,-0.724 -0.003,-0.96 -0.046,-0.236 -0.082,0.003 -0.08,0.531 m 101.144,17.886 c 0.185,0.049 0.487,0.049 0.672,0 0.185,-0.048 0.034,-0.088 -0.336,-0.088 -0.369,0 -0.52,0.04 -0.336,0.088 m 19.039,5.338 c 0,2.956 0.026,4.138 0.059,2.628 0.032,-1.511 0.032,-3.929 0,-5.375 -0.033,-1.445 -0.059,-0.209 -0.059,2.747 m -95.619,-0.726 c 0.291,0.044 0.723,0.043 0.959,-0.002 0.236,-0.046 -0.002,-0.082 -0.53,-0.081 -0.528,0.002 -0.721,0.039 -0.429,0.083"
       stroke="none"
       fill="#9ca3af"
       fill-rule="evenodd" />
  </g>
</svg>
