<svg width="626.384" height="591.317" viewBox="0 0 165.731 156.453" xmlns:xlink="http://www.w3.org/1999/xlink" xmlns="http://www.w3.org/2000/svg"><defs><linearGradient id="a"><stop style="stop-color:#9ca3af;stop-opacity:1" offset="0"/><stop style="stop-color:#9ca3af;stop-opacity:1" offset="1"/></linearGradient><linearGradient xlink:href="#a" id="b" gradientUnits="userSpaceOnUse" x1="110.829" y1="729.648" x2="110.829" y2="596.074" gradientTransform="rotate(-90 -176.43 310.683) scale(.70582)"/></defs><g style="fill:#fff;fill-opacity:1;stroke:none"><path class="st1" style="fill:#fff;stroke:none;stroke-width:.25;fill-opacity:1" d="M0 560.896h133.575v168.75H0z" transform="translate(67.12 -377.031) scale(.70582)"/></g><g style="fill:#9ca3af;fill-opacity:1;stroke:none"><path d="M9.48 551.34c-5.25 0-9.48 4.21-9.48 9.45V720.2c0 5.23 4.23 9.45 9.48 9.45h135.33c5.25 0 9.48-4.22 9.48-9.45V560.79c0-5.24-4.23-9.45-9.48-9.45zm-1.9 7.83h139.05v162.56H7.58Z" class="st4" style="fill:#9ca3af;stroke:none;stroke-width:.683161;stroke-linecap:round;stroke-linejoin:round;fill-opacity:1" transform="translate(56.83 -373.86) scale(.70582)"/></g><g style="fill:#9ca3af;fill-opacity:1;stroke:none"><g style="fill:#9ca3af;fill-opacity:1;stroke:none"><path class="st5" style="fill:'none';stroke:none;stroke-width:.25;fill-opacity:1" d="M0 709.429h37.442v20.217H0z" transform="translate(122.108 -468.882) scale(.70582)"/></g><g style="fill:#9ca3af;fill-opacity:1;stroke:none"><path class="st5" style="fill:#9ca3af;stroke:none;stroke-width:.25;fill-opacity:1" d="M0 709.429h37.442v20.217H0z" transform="translate(90.074 -468.882) scale(.70582)"/></g><g style="fill:#9ca3af;fill-opacity:1;stroke:none"><path class="st5" style="fill:#9ca3af;stroke:none;stroke-width:.25;fill-opacity:1" d="M0 709.429h37.442v20.217H0z" transform="translate(122.108 -449.395) scale(.70582)"/></g><g style="fill:#9ca3af;fill-opacity:1;stroke:none"><path class="st5" style="fill:#9ca3af;stroke:none;stroke-width:.25;fill-opacity:1" d="M0 709.429h37.442v20.217H0z" transform="translate(90.074 -449.46) scale(.70582)"/></g><g style="fill:#1f7144;fill-opacity:1;stroke:none"><path class="st5" style="fill:#9ca3af;stroke:none;stroke-width:.25;fill-opacity:1" d="M0 709.429h37.442v20.217H0z" transform="translate(122.108 -429.641) scale(.70582)"/></g><g style="fill:#9ca3af;fill-opacity:1;stroke:none"><path class="st5" style="fill:#9ca3af;stroke:none;stroke-width:.25;fill-opacity:1" d="M0 709.429h37.442v20.217H0z" transform="translate(90.074 -429.641) scale(.70582)"/></g><g style="fill:#9ca3af;fill-opacity:1;stroke:none"><path class="st5" style="fill:#9ca3af;stroke:none;stroke-width:.25;fill-opacity:1" d="M0 709.429h37.442v20.217H0z" transform="translate(122.108 -409.66) scale(.70582)"/></g><g style="fill:#9ca3af;fill-opacity:1;stroke:none"><path class="st5" style="fill:#9ca3af;stroke:none;stroke-width:.25;fill-opacity:1" d="M0 709.429h37.442v20.217H0z" transform="translate(90.074 -409.79) scale(.70582)"/></g><g style="fill:#9ca3af;fill-opacity:1;stroke:none"><path class="st5" style="fill:#9ca3af;stroke:none;stroke-width:.25;fill-opacity:1" d="M0 709.429h37.442v20.217H0z" transform="translate(122.108 -390.02) scale(.70582)"/></g><g style="fill:#9ca3af;fill-opacity:1;stroke:none"><path class="st5" style="fill:#9ca3af;stroke:none;stroke-width:.25;fill-opacity:1" d="M0 709.429h37.442v20.217H0z" transform="translate(90.074 -390.02) scale(.70582)"/></g></g><path d="M27.89 134.254V-22.2L-66.394-6.558v125.164Z" class="st25" style="fill:url(#b);fill-opacity:1;stroke:none;stroke-width:.176456" transform="translate(66.394 22.199)"/><g style="stroke:none"><path d="m17.42 652.12 9.25 24.04c.667 1.42.967 2.944 1.12 3.97-.07-1.195.181-2.129.86-3.97l10.96-25.36 16.84-1a1097.458 1097.458 0 0 0-19.67 39.36l20.51 40.49-18.15-1.08-11.03-26.42c-.863-1.993-.696-2.264-.87-3.24-.08.695-.108 1.265-.57 2.52l-11.1 25.74L0 726.24l18-36.54-16.2-36.65Z" class="st24" style="fill:#fff;stroke:none;stroke-width:.75" transform="translate(24.599 -408.198) scale(.70582)"/></g></svg>