<svg xmlns="http://www.w3.org/2000/svg" viewBox="0 0 420 420"><g stroke-width="2" fill="none" stroke="#9ca3af"><path vector-effect="non-scaling-stroke" d="M199.42 296.05c3.59 11.61 4.41 23.27 4.85 35.41a.77.77 0 0 0 .52.7l6.43 2.2a1 1 0 0 0 1.33-1c-.71-11.98-2.2-29.62 4.63-39.91m0 0c53.85-40.63 72.56-110.3 50.81-173.32-7.93-22.99-18.83-43.86-34.59-62.55q-4.4-5.21-14.8-16.11c-5.57-5.85-8.94-12.36-12.14-19.47"/><path vector-effect="non-scaling-stroke" d="m206.46 22-2.34-4.85q-.24-.5-.26.06-.4 9.05-6.42 14.21c-43.05 36.85-64.84 89.68-63.25 145.6 1.32 46.56 28.03 90.11 64.39 118.03q.08.06.52.66.12.16.32.34"/><path vector-effect="non-scaling-stroke" d="M206.46 22c-1-.24-1.38-.1-1.28.96 1.26 14.12 1.7 28.37 1.88 42.54.44 35.83.83 71.68 1.14 107.5.27 31.95-.14 52.38-2.02 87.96m0 0q-2.05 14.02-4.2 28.04-.63 4.09-2.56 7.05m17.76-2.6q-6.13-4.92-7.93-12.7-2.5-10.83-3.07-19.79"/></g><path fill="#9ca3af" d="M206.46 22c-1-.24-1.38-.1-1.28.96 1.26 14.12 1.7 28.37 1.88 42.54.44 35.83.83 71.68 1.14 107.5.27 31.95-.14 52.38-2.02 87.96q-2.05 14.02-4.2 28.04-.63 4.09-2.56 7.05-.2-.18-.32-.34-.44-.6-.52-.66c-36.36-27.92-63.07-71.47-64.39-118.03-1.59-55.92 20.2-108.75 63.25-145.6q6.02-5.16 6.42-14.21.02-.56.26-.06l2.34 4.85Z"/><path fill="#9ca3af" d="M206.46 22c3.2 7.11 6.57 13.62 12.14 19.47q10.4 10.9 14.8 16.11c15.76 18.69 26.66 39.56 34.59 62.55 21.75 63.02 3.04 132.69-50.81 173.32q-6.13-4.92-7.93-12.7-2.5-10.83-3.07-19.79c1.88-35.58 2.29-56.01 2.02-87.96-.31-35.82-.7-71.67-1.14-107.5-.18-14.17-.62-28.42-1.88-42.54-.1-1.06.28-1.2 1.28-.96Z"/></svg>